%TF.GenerationSoftware,KiCad,Pcbnew,10.0.4*%
%TF.CreationDate,2026-08-23T16:17:51+02:00*%
%TF.ProjectId,Chess board,43686573-7320-4626-9f61-72642e6b6963,rev?*%
%TF.SameCoordinates,Original*%
%TF.FileFunction,Soldermask,Top*%
%TF.FilePolarity,Negative*%
%FSLAX46Y46*%
G04 Gerber Fmt 4.6, Leading zero omitted, Abs format (unit mm)*
G04 Created by KiCad (PCBNEW 10.0.4) date 2026-08-23 16:17:51*
%MOMM*%
%LPD*%
G01*
G04 APERTURE LIST*
G04 Aperture macros list*
%AMRoundRect*
0 Rectangle with rounded corners*
0 $1 Rounding radius*
0 $2 $3 $4 $5 $6 $7 $8 $9 X,Y pos of 4 corners*
0 Add a 4 corners polygon primitive as box body*
4,1,4,$2,$3,$4,$5,$6,$7,$8,$9,$2,$3,0*
0 Add four circle primitives for the rounded corners*
1,1,$1+$1,$2,$3*
1,1,$1+$1,$4,$5*
1,1,$1+$1,$6,$7*
1,1,$1+$1,$8,$9*
0 Add four rect primitives between the rounded corners*
20,1,$1+$1,$2,$3,$4,$5,0*
20,1,$1+$1,$4,$5,$6,$7,0*
20,1,$1+$1,$6,$7,$8,$9,0*
20,1,$1+$1,$8,$9,$2,$3,0*%
G04 Aperture macros list end*
%ADD10RoundRect,0.175000X-0.325000X-0.175000X0.325000X-0.175000X0.325000X0.175000X-0.325000X0.175000X0*%
%ADD11RoundRect,0.250000X-0.250000X-0.475000X0.250000X-0.475000X0.250000X0.475000X-0.250000X0.475000X0*%
%ADD12RoundRect,0.090000X-0.660000X-0.360000X0.660000X-0.360000X0.660000X0.360000X-0.660000X0.360000X0*%
%ADD13RoundRect,0.250000X-0.262500X-0.450000X0.262500X-0.450000X0.262500X0.450000X-0.262500X0.450000X0*%
%ADD14RoundRect,0.175000X0.175000X-0.325000X0.175000X0.325000X-0.175000X0.325000X-0.175000X-0.325000X0*%
%ADD15RoundRect,0.250000X0.450000X-0.262500X0.450000X0.262500X-0.450000X0.262500X-0.450000X-0.262500X0*%
%ADD16RoundRect,0.175000X-0.175000X0.325000X-0.175000X-0.325000X0.175000X-0.325000X0.175000X0.325000X0*%
%ADD17R,1.600000X1.600000*%
%ADD18O,1.600000X1.600000*%
G04 APERTURE END LIST*
D10*
%TO.C,U26*%
X127600000Y-145150000D03*
X127600000Y-147050000D03*
X130000000Y-146100000D03*
%TD*%
D11*
%TO.C,C21*%
X210250000Y-125600000D03*
X212150000Y-125600000D03*
%TD*%
%TO.C,C1*%
X110250000Y-75600000D03*
X112150000Y-75600000D03*
%TD*%
D12*
%TO.C,D4*%
X176350000Y-73950000D03*
X176350000Y-77250000D03*
X181250000Y-77250000D03*
X181250000Y-73950000D03*
%TD*%
D10*
%TO.C,U51*%
X152600000Y-220150000D03*
X152600000Y-222050000D03*
X155000000Y-221100000D03*
%TD*%
D11*
%TO.C,C3*%
X160250000Y-75600000D03*
X162150000Y-75600000D03*
%TD*%
D13*
%TO.C,R7*%
X252887500Y-80100000D03*
X254712500Y-80100000D03*
%TD*%
D10*
%TO.C,U1*%
X102600000Y-70150000D03*
X102600000Y-72050000D03*
X105000000Y-71100000D03*
%TD*%
D12*
%TO.C,D31*%
X251350000Y-148950000D03*
X251350000Y-152250000D03*
X256250000Y-152250000D03*
X256250000Y-148950000D03*
%TD*%
D14*
%TO.C,U70*%
X99500000Y-88300000D03*
X101400000Y-88300000D03*
X100450000Y-85900000D03*
%TD*%
D13*
%TO.C,R8*%
X277887500Y-80100000D03*
X279712500Y-80100000D03*
%TD*%
D11*
%TO.C,C40*%
X285250000Y-175600000D03*
X287150000Y-175600000D03*
%TD*%
D12*
%TO.C,D11*%
X151350000Y-98950000D03*
X151350000Y-102250000D03*
X156250000Y-102250000D03*
X156250000Y-98950000D03*
%TD*%
D13*
%TO.C,R28*%
X177887500Y-155100000D03*
X179712500Y-155100000D03*
%TD*%
D10*
%TO.C,U38*%
X227600000Y-170150000D03*
X227600000Y-172050000D03*
X230000000Y-171100000D03*
%TD*%
D11*
%TO.C,C14*%
X235250000Y-100600000D03*
X237150000Y-100600000D03*
%TD*%
D12*
%TO.C,D23*%
X251350000Y-123950000D03*
X251350000Y-127250000D03*
X256250000Y-127250000D03*
X256250000Y-123950000D03*
%TD*%
D14*
%TO.C,U71*%
X119500000Y-88300000D03*
X121400000Y-88300000D03*
X120450000Y-85900000D03*
%TD*%
D10*
%TO.C,U53*%
X202600000Y-220150000D03*
X202600000Y-222050000D03*
X205000000Y-221100000D03*
%TD*%
D11*
%TO.C,C6*%
X235250000Y-75600000D03*
X237150000Y-75600000D03*
%TD*%
D13*
%TO.C,R38*%
X227887500Y-180100000D03*
X229712500Y-180100000D03*
%TD*%
D10*
%TO.C,U56*%
X277600000Y-220150000D03*
X277600000Y-222050000D03*
X280000000Y-221100000D03*
%TD*%
D13*
%TO.C,R1*%
X102887500Y-80100000D03*
X104712500Y-80100000D03*
%TD*%
%TO.C,R13*%
X202887500Y-105100000D03*
X204712500Y-105100000D03*
%TD*%
D11*
%TO.C,C46*%
X235250000Y-200600000D03*
X237150000Y-200600000D03*
%TD*%
D12*
%TO.C,D18*%
X126350000Y-123950000D03*
X126350000Y-127250000D03*
X131250000Y-127250000D03*
X131250000Y-123950000D03*
%TD*%
%TO.C,D15*%
X251350000Y-98950000D03*
X251350000Y-102250000D03*
X256250000Y-102250000D03*
X256250000Y-98950000D03*
%TD*%
D10*
%TO.C,U15*%
X252600000Y-95150000D03*
X252600000Y-97050000D03*
X255000000Y-96100000D03*
%TD*%
D12*
%TO.C,D16*%
X276350000Y-98950000D03*
X276350000Y-102250000D03*
X281250000Y-102250000D03*
X281250000Y-98950000D03*
%TD*%
D11*
%TO.C,C15*%
X260250000Y-100600000D03*
X262150000Y-100600000D03*
%TD*%
%TO.C,C56*%
X285250000Y-225600000D03*
X287150000Y-225600000D03*
%TD*%
D10*
%TO.C,U17*%
X102600000Y-120150000D03*
X102600000Y-122050000D03*
X105000000Y-121100000D03*
%TD*%
D11*
%TO.C,C28*%
X185250000Y-150600000D03*
X187150000Y-150600000D03*
%TD*%
%TO.C,C30*%
X235250000Y-150600000D03*
X237150000Y-150600000D03*
%TD*%
%TO.C,C32*%
X285250000Y-150600000D03*
X287150000Y-150600000D03*
%TD*%
D10*
%TO.C,U14*%
X227600000Y-95150000D03*
X227600000Y-97050000D03*
X230000000Y-96100000D03*
%TD*%
%TO.C,U55*%
X252600000Y-220150000D03*
X252600000Y-222050000D03*
X255000000Y-221100000D03*
%TD*%
D13*
%TO.C,R46*%
X227887500Y-205100000D03*
X229712500Y-205100000D03*
%TD*%
%TO.C,R56*%
X277887500Y-230100000D03*
X279712500Y-230100000D03*
%TD*%
D12*
%TO.C,D63*%
X251350000Y-248950000D03*
X251350000Y-252250000D03*
X256250000Y-252250000D03*
X256250000Y-248950000D03*
%TD*%
D13*
%TO.C,R16*%
X277887500Y-105100000D03*
X279712500Y-105100000D03*
%TD*%
D10*
%TO.C,U16*%
X277600000Y-95150000D03*
X277600000Y-97050000D03*
X280000000Y-96100000D03*
%TD*%
D13*
%TO.C,R37*%
X202887500Y-180100000D03*
X204712500Y-180100000D03*
%TD*%
D12*
%TO.C,D13*%
X201350000Y-98950000D03*
X201350000Y-102250000D03*
X206250000Y-102250000D03*
X206250000Y-98950000D03*
%TD*%
D11*
%TO.C,C47*%
X260250000Y-200600000D03*
X262150000Y-200600000D03*
%TD*%
D10*
%TO.C,U2*%
X127600000Y-70150000D03*
X127600000Y-72050000D03*
X130000000Y-71100000D03*
%TD*%
D11*
%TO.C,C10*%
X135250000Y-100600000D03*
X137150000Y-100600000D03*
%TD*%
D10*
%TO.C,U9*%
X102600000Y-95150000D03*
X102600000Y-97050000D03*
X105000000Y-96100000D03*
%TD*%
D13*
%TO.C,R10*%
X127887500Y-105100000D03*
X129712500Y-105100000D03*
%TD*%
D12*
%TO.C,D17*%
X101350000Y-123950000D03*
X101350000Y-127250000D03*
X106250000Y-127250000D03*
X106250000Y-123950000D03*
%TD*%
%TO.C,D38*%
X226350000Y-173950000D03*
X226350000Y-177250000D03*
X231250000Y-177250000D03*
X231250000Y-173950000D03*
%TD*%
%TO.C,D52*%
X176350000Y-223950000D03*
X176350000Y-227250000D03*
X181250000Y-227250000D03*
X181250000Y-223950000D03*
%TD*%
D13*
%TO.C,R2*%
X127887500Y-80100000D03*
X129712500Y-80100000D03*
%TD*%
D12*
%TO.C,D25*%
X101350000Y-148950000D03*
X101350000Y-152250000D03*
X106250000Y-152250000D03*
X106250000Y-148950000D03*
%TD*%
D11*
%TO.C,C57*%
X110250000Y-250600000D03*
X112150000Y-250600000D03*
%TD*%
D13*
%TO.C,R51*%
X152887500Y-230100000D03*
X154712500Y-230100000D03*
%TD*%
%TO.C,R21*%
X202887500Y-130100000D03*
X204712500Y-130100000D03*
%TD*%
D10*
%TO.C,U35*%
X152600000Y-170150000D03*
X152600000Y-172050000D03*
X155000000Y-171100000D03*
%TD*%
%TO.C,U25*%
X102600000Y-145150000D03*
X102600000Y-147050000D03*
X105000000Y-146100000D03*
%TD*%
D11*
%TO.C,C51*%
X160250000Y-225600000D03*
X162150000Y-225600000D03*
%TD*%
D10*
%TO.C,U49*%
X102600000Y-220150000D03*
X102600000Y-222050000D03*
X105000000Y-221100000D03*
%TD*%
D13*
%TO.C,R31*%
X252887500Y-155100000D03*
X254712500Y-155100000D03*
%TD*%
D11*
%TO.C,C39*%
X260250000Y-175600000D03*
X262150000Y-175600000D03*
%TD*%
D15*
%TO.C,R65*%
X140450000Y-88012500D03*
X140450000Y-86187500D03*
%TD*%
D10*
%TO.C,U62*%
X227600000Y-245150000D03*
X227600000Y-247050000D03*
X230000000Y-246100000D03*
%TD*%
%TO.C,U20*%
X177600000Y-120150000D03*
X177600000Y-122050000D03*
X180000000Y-121100000D03*
%TD*%
D13*
%TO.C,R40*%
X277887500Y-180100000D03*
X279712500Y-180100000D03*
%TD*%
D10*
%TO.C,U41*%
X102600000Y-195150000D03*
X102600000Y-197050000D03*
X105000000Y-196100000D03*
%TD*%
%TO.C,U63*%
X252600000Y-245150000D03*
X252600000Y-247050000D03*
X255000000Y-246100000D03*
%TD*%
D11*
%TO.C,C26*%
X135250000Y-150600000D03*
X137150000Y-150600000D03*
%TD*%
D12*
%TO.C,D39*%
X251350000Y-173950000D03*
X251350000Y-177250000D03*
X256250000Y-177250000D03*
X256250000Y-173950000D03*
%TD*%
D11*
%TO.C,C48*%
X285250000Y-200600000D03*
X287150000Y-200600000D03*
%TD*%
D13*
%TO.C,R50*%
X127887500Y-230100000D03*
X129712500Y-230100000D03*
%TD*%
%TO.C,R57*%
X102887500Y-255100000D03*
X104712500Y-255100000D03*
%TD*%
D10*
%TO.C,U57*%
X102600000Y-245150000D03*
X102600000Y-247050000D03*
X105000000Y-246100000D03*
%TD*%
D13*
%TO.C,R26*%
X127887500Y-155100000D03*
X129712500Y-155100000D03*
%TD*%
%TO.C,R39*%
X252887500Y-180100000D03*
X254712500Y-180100000D03*
%TD*%
D12*
%TO.C,D33*%
X101350000Y-173950000D03*
X101350000Y-177250000D03*
X106250000Y-177250000D03*
X106250000Y-173950000D03*
%TD*%
%TO.C,D51*%
X151350000Y-223950000D03*
X151350000Y-227250000D03*
X156250000Y-227250000D03*
X156250000Y-223950000D03*
%TD*%
D13*
%TO.C,R35*%
X152887500Y-180100000D03*
X154712500Y-180100000D03*
%TD*%
%TO.C,R33*%
X102887500Y-180100000D03*
X104712500Y-180100000D03*
%TD*%
D10*
%TO.C,U50*%
X127600000Y-220150000D03*
X127600000Y-222050000D03*
X130000000Y-221100000D03*
%TD*%
D13*
%TO.C,R29*%
X202887500Y-155100000D03*
X204712500Y-155100000D03*
%TD*%
D12*
%TO.C,D58*%
X126350000Y-248950000D03*
X126350000Y-252250000D03*
X131250000Y-252250000D03*
X131250000Y-248950000D03*
%TD*%
D13*
%TO.C,R48*%
X277887500Y-205100000D03*
X279712500Y-205100000D03*
%TD*%
%TO.C,R20*%
X177887500Y-130100000D03*
X179712500Y-130100000D03*
%TD*%
D10*
%TO.C,U22*%
X227600000Y-120150000D03*
X227600000Y-122050000D03*
X230000000Y-121100000D03*
%TD*%
D13*
%TO.C,R63*%
X252887500Y-255100000D03*
X254712500Y-255100000D03*
%TD*%
D11*
%TO.C,C16*%
X285250000Y-100600000D03*
X287150000Y-100600000D03*
%TD*%
%TO.C,C36*%
X185250000Y-175600000D03*
X187150000Y-175600000D03*
%TD*%
D10*
%TO.C,U32*%
X277600000Y-145150000D03*
X277600000Y-147050000D03*
X280000000Y-146100000D03*
%TD*%
%TO.C,U44*%
X177600000Y-195150000D03*
X177600000Y-197050000D03*
X180000000Y-196100000D03*
%TD*%
%TO.C,U61*%
X202600000Y-245150000D03*
X202600000Y-247050000D03*
X205000000Y-246100000D03*
%TD*%
%TO.C,U36*%
X177600000Y-170150000D03*
X177600000Y-172050000D03*
X180000000Y-171100000D03*
%TD*%
%TO.C,U21*%
X202600000Y-120150000D03*
X202600000Y-122050000D03*
X205000000Y-121100000D03*
%TD*%
%TO.C,U3*%
X152600000Y-70150000D03*
X152600000Y-72050000D03*
X155000000Y-71100000D03*
%TD*%
D14*
%TO.C,U68*%
X159450000Y-87200000D03*
X161350000Y-87200000D03*
X160400000Y-84800000D03*
%TD*%
D10*
%TO.C,U42*%
X127600000Y-195150000D03*
X127600000Y-197050000D03*
X130000000Y-196100000D03*
%TD*%
D12*
%TO.C,D50*%
X126350000Y-223950000D03*
X126350000Y-227250000D03*
X131250000Y-227250000D03*
X131250000Y-223950000D03*
%TD*%
D10*
%TO.C,U19*%
X152600000Y-120150000D03*
X152600000Y-122050000D03*
X155000000Y-121100000D03*
%TD*%
D11*
%TO.C,C54*%
X235250000Y-225600000D03*
X237150000Y-225600000D03*
%TD*%
%TO.C,C37*%
X210250000Y-175600000D03*
X212150000Y-175600000D03*
%TD*%
%TO.C,C43*%
X160250000Y-200600000D03*
X162150000Y-200600000D03*
%TD*%
%TO.C,C35*%
X160250000Y-175600000D03*
X162150000Y-175600000D03*
%TD*%
%TO.C,C38*%
X235250000Y-175600000D03*
X237150000Y-175600000D03*
%TD*%
D12*
%TO.C,D36*%
X176350000Y-173950000D03*
X176350000Y-177250000D03*
X181250000Y-177250000D03*
X181250000Y-173950000D03*
%TD*%
D11*
%TO.C,C17*%
X110250000Y-125600000D03*
X112150000Y-125600000D03*
%TD*%
D10*
%TO.C,U34*%
X127600000Y-170150000D03*
X127600000Y-172050000D03*
X130000000Y-171100000D03*
%TD*%
D11*
%TO.C,C41*%
X110250000Y-200600000D03*
X112150000Y-200600000D03*
%TD*%
D13*
%TO.C,R23*%
X252887500Y-130100000D03*
X254712500Y-130100000D03*
%TD*%
D10*
%TO.C,U29*%
X202600000Y-145150000D03*
X202600000Y-147050000D03*
X205000000Y-146100000D03*
%TD*%
D11*
%TO.C,C19*%
X160250000Y-125600000D03*
X162150000Y-125600000D03*
%TD*%
D10*
%TO.C,U28*%
X177600000Y-145150000D03*
X177600000Y-147050000D03*
X180000000Y-146100000D03*
%TD*%
D13*
%TO.C,R49*%
X102887500Y-230100000D03*
X104712500Y-230100000D03*
%TD*%
D11*
%TO.C,C5*%
X210250000Y-75600000D03*
X212150000Y-75600000D03*
%TD*%
%TO.C,C49*%
X110250000Y-225600000D03*
X112150000Y-225600000D03*
%TD*%
D12*
%TO.C,D26*%
X126350000Y-148950000D03*
X126350000Y-152250000D03*
X131250000Y-152250000D03*
X131250000Y-148950000D03*
%TD*%
D13*
%TO.C,R32*%
X277887500Y-155100000D03*
X279712500Y-155100000D03*
%TD*%
%TO.C,R27*%
X152887500Y-155100000D03*
X154712500Y-155100000D03*
%TD*%
%TO.C,R25*%
X102887500Y-155100000D03*
X104712500Y-155100000D03*
%TD*%
D12*
%TO.C,D45*%
X201350000Y-198950000D03*
X201350000Y-202250000D03*
X206250000Y-202250000D03*
X206250000Y-198950000D03*
%TD*%
D13*
%TO.C,R3*%
X152775000Y-81200000D03*
X154600000Y-81200000D03*
%TD*%
D10*
%TO.C,U39*%
X252600000Y-170150000D03*
X252600000Y-172050000D03*
X255000000Y-171100000D03*
%TD*%
D11*
%TO.C,C64*%
X285250000Y-250600000D03*
X287150000Y-250600000D03*
%TD*%
D12*
%TO.C,D34*%
X126350000Y-173950000D03*
X126350000Y-177250000D03*
X131250000Y-177250000D03*
X131250000Y-173950000D03*
%TD*%
D10*
%TO.C,U40*%
X277600000Y-170150000D03*
X277600000Y-172050000D03*
X280000000Y-171100000D03*
%TD*%
D16*
%TO.C,U65*%
X141650000Y-110900000D03*
X139750000Y-110900000D03*
X140700000Y-113300000D03*
%TD*%
D12*
%TO.C,D49*%
X101350000Y-223950000D03*
X101350000Y-227250000D03*
X106250000Y-227250000D03*
X106250000Y-223950000D03*
%TD*%
%TO.C,D30*%
X226350000Y-148950000D03*
X226350000Y-152250000D03*
X231250000Y-152250000D03*
X231250000Y-148950000D03*
%TD*%
%TO.C,D1*%
X101350000Y-73950000D03*
X101350000Y-77250000D03*
X106250000Y-77250000D03*
X106250000Y-73950000D03*
%TD*%
D13*
%TO.C,R9*%
X102887500Y-105100000D03*
X104712500Y-105100000D03*
%TD*%
%TO.C,R61*%
X202887500Y-255100000D03*
X204712500Y-255100000D03*
%TD*%
%TO.C,R19*%
X152887500Y-130100000D03*
X154712500Y-130100000D03*
%TD*%
D11*
%TO.C,C42*%
X135250000Y-200600000D03*
X137150000Y-200600000D03*
%TD*%
D12*
%TO.C,D57*%
X101350000Y-248950000D03*
X101350000Y-252250000D03*
X106250000Y-252250000D03*
X106250000Y-248950000D03*
%TD*%
%TO.C,D64*%
X276350000Y-248950000D03*
X276350000Y-252250000D03*
X281250000Y-252250000D03*
X281250000Y-248950000D03*
%TD*%
D10*
%TO.C,U13*%
X202600000Y-95150000D03*
X202600000Y-97050000D03*
X205000000Y-96100000D03*
%TD*%
D12*
%TO.C,D2*%
X126350000Y-73950000D03*
X126350000Y-77250000D03*
X131250000Y-77250000D03*
X131250000Y-73950000D03*
%TD*%
%TO.C,D5*%
X201350000Y-73950000D03*
X201350000Y-77250000D03*
X206250000Y-77250000D03*
X206250000Y-73950000D03*
%TD*%
D11*
%TO.C,C44*%
X185250000Y-200600000D03*
X187150000Y-200600000D03*
%TD*%
D13*
%TO.C,R5*%
X202887500Y-80100000D03*
X204712500Y-80100000D03*
%TD*%
D12*
%TO.C,D6*%
X226350000Y-73950000D03*
X226350000Y-77250000D03*
X231250000Y-77250000D03*
X231250000Y-73950000D03*
%TD*%
%TO.C,D37*%
X201350000Y-173950000D03*
X201350000Y-177250000D03*
X206250000Y-177250000D03*
X206250000Y-173950000D03*
%TD*%
%TO.C,D19*%
X151350000Y-123950000D03*
X151350000Y-127250000D03*
X156250000Y-127250000D03*
X156250000Y-123950000D03*
%TD*%
D10*
%TO.C,U10*%
X127600000Y-95150000D03*
X127600000Y-97050000D03*
X130000000Y-96100000D03*
%TD*%
D16*
%TO.C,U69*%
X192050000Y-136700000D03*
X190150000Y-136700000D03*
X191100000Y-139100000D03*
%TD*%
D13*
%TO.C,R52*%
X177887500Y-230100000D03*
X179712500Y-230100000D03*
%TD*%
D11*
%TO.C,C50*%
X135250000Y-225600000D03*
X137150000Y-225600000D03*
%TD*%
D10*
%TO.C,U8*%
X277600000Y-70150000D03*
X277600000Y-72050000D03*
X280000000Y-71100000D03*
%TD*%
D11*
%TO.C,C8*%
X285250000Y-75600000D03*
X287150000Y-75600000D03*
%TD*%
D13*
%TO.C,R45*%
X202887500Y-205100000D03*
X204712500Y-205100000D03*
%TD*%
D11*
%TO.C,C11*%
X160250000Y-100600000D03*
X162150000Y-100600000D03*
%TD*%
D12*
%TO.C,D54*%
X226350000Y-223950000D03*
X226350000Y-227250000D03*
X231250000Y-227250000D03*
X231250000Y-223950000D03*
%TD*%
%TO.C,D12*%
X176350000Y-98950000D03*
X176350000Y-102250000D03*
X181250000Y-102250000D03*
X181250000Y-98950000D03*
%TD*%
D11*
%TO.C,C23*%
X260250000Y-125600000D03*
X262150000Y-125600000D03*
%TD*%
D13*
%TO.C,R36*%
X177887500Y-180100000D03*
X179712500Y-180100000D03*
%TD*%
D10*
%TO.C,U47*%
X252600000Y-195150000D03*
X252600000Y-197050000D03*
X255000000Y-196100000D03*
%TD*%
D16*
%TO.C,U66*%
X117250000Y-111400000D03*
X115350000Y-111400000D03*
X116300000Y-113800000D03*
%TD*%
D11*
%TO.C,C27*%
X160250000Y-150600000D03*
X162150000Y-150600000D03*
%TD*%
D10*
%TO.C,U30*%
X227600000Y-145150000D03*
X227600000Y-147050000D03*
X230000000Y-146100000D03*
%TD*%
D13*
%TO.C,R47*%
X252887500Y-205100000D03*
X254712500Y-205100000D03*
%TD*%
%TO.C,R12*%
X177887500Y-105100000D03*
X179712500Y-105100000D03*
%TD*%
%TO.C,R54*%
X227887500Y-230100000D03*
X229712500Y-230100000D03*
%TD*%
D10*
%TO.C,U64*%
X277600000Y-245150000D03*
X277600000Y-247050000D03*
X280000000Y-246100000D03*
%TD*%
%TO.C,U58*%
X127600000Y-245150000D03*
X127600000Y-247050000D03*
X130000000Y-246100000D03*
%TD*%
D13*
%TO.C,R11*%
X152887500Y-105100000D03*
X154712500Y-105100000D03*
%TD*%
D10*
%TO.C,U54*%
X227600000Y-220150000D03*
X227600000Y-222050000D03*
X230000000Y-221100000D03*
%TD*%
D11*
%TO.C,C18*%
X135250000Y-125600000D03*
X137150000Y-125600000D03*
%TD*%
%TO.C,C60*%
X185250000Y-250600000D03*
X187150000Y-250600000D03*
%TD*%
D12*
%TO.C,D61*%
X201350000Y-248950000D03*
X201350000Y-252250000D03*
X206250000Y-252250000D03*
X206250000Y-248950000D03*
%TD*%
D13*
%TO.C,R17*%
X102887500Y-130100000D03*
X104712500Y-130100000D03*
%TD*%
%TO.C,R34*%
X127887500Y-180100000D03*
X129712500Y-180100000D03*
%TD*%
D14*
%TO.C,U72*%
X167800000Y-87400000D03*
X169700000Y-87400000D03*
X168750000Y-85000000D03*
%TD*%
D12*
%TO.C,D10*%
X126350000Y-98950000D03*
X126350000Y-102250000D03*
X131250000Y-102250000D03*
X131250000Y-98950000D03*
%TD*%
D11*
%TO.C,C63*%
X260250000Y-250600000D03*
X262150000Y-250600000D03*
%TD*%
D12*
%TO.C,D35*%
X151350000Y-173950000D03*
X151350000Y-177250000D03*
X156250000Y-177250000D03*
X156250000Y-173950000D03*
%TD*%
D13*
%TO.C,R64*%
X277887500Y-255100000D03*
X279712500Y-255100000D03*
%TD*%
D10*
%TO.C,U24*%
X277600000Y-120150000D03*
X277600000Y-122050000D03*
X280000000Y-121100000D03*
%TD*%
D12*
%TO.C,D43*%
X151350000Y-198950000D03*
X151350000Y-202250000D03*
X156250000Y-202250000D03*
X156250000Y-198950000D03*
%TD*%
%TO.C,D42*%
X126350000Y-198950000D03*
X126350000Y-202250000D03*
X131250000Y-202250000D03*
X131250000Y-198950000D03*
%TD*%
D10*
%TO.C,U6*%
X227600000Y-70150000D03*
X227600000Y-72050000D03*
X230000000Y-71100000D03*
%TD*%
%TO.C,U27*%
X152600000Y-145150000D03*
X152600000Y-147050000D03*
X155000000Y-146100000D03*
%TD*%
D12*
%TO.C,D59*%
X151350000Y-248950000D03*
X151350000Y-252250000D03*
X156250000Y-252250000D03*
X156250000Y-248950000D03*
%TD*%
%TO.C,D56*%
X276350000Y-223950000D03*
X276350000Y-227250000D03*
X281250000Y-227250000D03*
X281250000Y-223950000D03*
%TD*%
%TO.C,D46*%
X226350000Y-198950000D03*
X226350000Y-202250000D03*
X231250000Y-202250000D03*
X231250000Y-198950000D03*
%TD*%
D11*
%TO.C,C52*%
X185250000Y-225600000D03*
X187150000Y-225600000D03*
%TD*%
D12*
%TO.C,D8*%
X276350000Y-73950000D03*
X276350000Y-77250000D03*
X281250000Y-77250000D03*
X281250000Y-73950000D03*
%TD*%
D10*
%TO.C,U11*%
X152600000Y-95150000D03*
X152600000Y-97050000D03*
X155000000Y-96100000D03*
%TD*%
D12*
%TO.C,D44*%
X176350000Y-198950000D03*
X176350000Y-202250000D03*
X181250000Y-202250000D03*
X181250000Y-198950000D03*
%TD*%
D10*
%TO.C,U23*%
X252600000Y-120150000D03*
X252600000Y-122050000D03*
X255000000Y-121100000D03*
%TD*%
D13*
%TO.C,R18*%
X127887500Y-130100000D03*
X129712500Y-130100000D03*
%TD*%
D11*
%TO.C,C24*%
X285250000Y-125600000D03*
X287150000Y-125600000D03*
%TD*%
D12*
%TO.C,D40*%
X276350000Y-173950000D03*
X276350000Y-177250000D03*
X281250000Y-177250000D03*
X281250000Y-173950000D03*
%TD*%
D10*
%TO.C,U60*%
X177600000Y-245150000D03*
X177600000Y-247050000D03*
X180000000Y-246100000D03*
%TD*%
D12*
%TO.C,D22*%
X226350000Y-123950000D03*
X226350000Y-127250000D03*
X231250000Y-127250000D03*
X231250000Y-123950000D03*
%TD*%
D11*
%TO.C,C34*%
X135250000Y-175600000D03*
X137150000Y-175600000D03*
%TD*%
D13*
%TO.C,R42*%
X127887500Y-205100000D03*
X129712500Y-205100000D03*
%TD*%
%TO.C,R22*%
X227887500Y-130100000D03*
X229712500Y-130100000D03*
%TD*%
D11*
%TO.C,C33*%
X110250000Y-175600000D03*
X112150000Y-175600000D03*
%TD*%
D13*
%TO.C,R59*%
X152887500Y-255100000D03*
X154712500Y-255100000D03*
%TD*%
D12*
%TO.C,D62*%
X226350000Y-248950000D03*
X226350000Y-252250000D03*
X231250000Y-252250000D03*
X231250000Y-248950000D03*
%TD*%
D11*
%TO.C,C12*%
X185250000Y-100600000D03*
X187150000Y-100600000D03*
%TD*%
D13*
%TO.C,R60*%
X177887500Y-255100000D03*
X179712500Y-255100000D03*
%TD*%
D12*
%TO.C,D28*%
X176350000Y-148950000D03*
X176350000Y-152250000D03*
X181250000Y-152250000D03*
X181250000Y-148950000D03*
%TD*%
D11*
%TO.C,C31*%
X260250000Y-150600000D03*
X262150000Y-150600000D03*
%TD*%
D13*
%TO.C,R6*%
X227887500Y-80100000D03*
X229712500Y-80100000D03*
%TD*%
D11*
%TO.C,C61*%
X210250000Y-250600000D03*
X212150000Y-250600000D03*
%TD*%
D12*
%TO.C,D14*%
X226350000Y-98950000D03*
X226350000Y-102250000D03*
X231250000Y-102250000D03*
X231250000Y-98950000D03*
%TD*%
D13*
%TO.C,R15*%
X252887500Y-105100000D03*
X254712500Y-105100000D03*
%TD*%
%TO.C,R14*%
X227887500Y-105100000D03*
X229712500Y-105100000D03*
%TD*%
D10*
%TO.C,U37*%
X202600000Y-170150000D03*
X202600000Y-172050000D03*
X205000000Y-171100000D03*
%TD*%
%TO.C,U12*%
X177600000Y-95150000D03*
X177600000Y-97050000D03*
X180000000Y-96100000D03*
%TD*%
D14*
%TO.C,U67*%
X187700000Y-88100000D03*
X189600000Y-88100000D03*
X188650000Y-85700000D03*
%TD*%
D12*
%TO.C,D20*%
X176350000Y-123950000D03*
X176350000Y-127250000D03*
X181250000Y-127250000D03*
X181250000Y-123950000D03*
%TD*%
D10*
%TO.C,U59*%
X152600000Y-245150000D03*
X152600000Y-247050000D03*
X155000000Y-246100000D03*
%TD*%
%TO.C,U7*%
X252600000Y-70150000D03*
X252600000Y-72050000D03*
X255000000Y-71100000D03*
%TD*%
D13*
%TO.C,R43*%
X152887500Y-205100000D03*
X154712500Y-205100000D03*
%TD*%
D10*
%TO.C,U48*%
X277600000Y-195150000D03*
X277600000Y-197050000D03*
X280000000Y-196100000D03*
%TD*%
%TO.C,U43*%
X152600000Y-195150000D03*
X152600000Y-197050000D03*
X155000000Y-196100000D03*
%TD*%
D11*
%TO.C,C45*%
X210250000Y-200600000D03*
X212150000Y-200600000D03*
%TD*%
%TO.C,C13*%
X210250000Y-100600000D03*
X212150000Y-100600000D03*
%TD*%
%TO.C,C2*%
X135250000Y-75600000D03*
X137150000Y-75600000D03*
%TD*%
%TO.C,C25*%
X110250000Y-150600000D03*
X112150000Y-150600000D03*
%TD*%
D12*
%TO.C,D9*%
X101350000Y-98950000D03*
X101350000Y-102250000D03*
X106250000Y-102250000D03*
X106250000Y-98950000D03*
%TD*%
D11*
%TO.C,C59*%
X160250000Y-250600000D03*
X162150000Y-250600000D03*
%TD*%
D13*
%TO.C,R41*%
X102887500Y-205100000D03*
X104712500Y-205100000D03*
%TD*%
%TO.C,R24*%
X277887500Y-130100000D03*
X279712500Y-130100000D03*
%TD*%
D12*
%TO.C,D24*%
X276350000Y-123950000D03*
X276350000Y-127250000D03*
X281250000Y-127250000D03*
X281250000Y-123950000D03*
%TD*%
D10*
%TO.C,U5*%
X202600000Y-70150000D03*
X202600000Y-72050000D03*
X205000000Y-71100000D03*
%TD*%
D13*
%TO.C,R4*%
X177887500Y-80100000D03*
X179712500Y-80100000D03*
%TD*%
D12*
%TO.C,D27*%
X151350000Y-148950000D03*
X151350000Y-152250000D03*
X156250000Y-152250000D03*
X156250000Y-148950000D03*
%TD*%
%TO.C,D21*%
X201350000Y-123950000D03*
X201350000Y-127250000D03*
X206250000Y-127250000D03*
X206250000Y-123950000D03*
%TD*%
D11*
%TO.C,C29*%
X210250000Y-150600000D03*
X212150000Y-150600000D03*
%TD*%
%TO.C,C4*%
X185250000Y-75600000D03*
X187150000Y-75600000D03*
%TD*%
D12*
%TO.C,D29*%
X201350000Y-148950000D03*
X201350000Y-152250000D03*
X206250000Y-152250000D03*
X206250000Y-148950000D03*
%TD*%
D13*
%TO.C,R62*%
X227887500Y-255100000D03*
X229712500Y-255100000D03*
%TD*%
D11*
%TO.C,C9*%
X110250000Y-100600000D03*
X112150000Y-100600000D03*
%TD*%
%TO.C,C20*%
X185250000Y-125600000D03*
X187150000Y-125600000D03*
%TD*%
%TO.C,C58*%
X135250000Y-250600000D03*
X137150000Y-250600000D03*
%TD*%
D10*
%TO.C,U18*%
X127600000Y-120150000D03*
X127600000Y-122050000D03*
X130000000Y-121100000D03*
%TD*%
%TO.C,U31*%
X252600000Y-145150000D03*
X252600000Y-147050000D03*
X255000000Y-146100000D03*
%TD*%
D11*
%TO.C,C22*%
X235250000Y-125600000D03*
X237150000Y-125600000D03*
%TD*%
D10*
%TO.C,U52*%
X177600000Y-220150000D03*
X177600000Y-222050000D03*
X180000000Y-221100000D03*
%TD*%
D12*
%TO.C,D48*%
X276350000Y-198950000D03*
X276350000Y-202250000D03*
X281250000Y-202250000D03*
X281250000Y-198950000D03*
%TD*%
D13*
%TO.C,R58*%
X127887500Y-255100000D03*
X129712500Y-255100000D03*
%TD*%
D11*
%TO.C,C53*%
X210250000Y-225600000D03*
X212150000Y-225600000D03*
%TD*%
D10*
%TO.C,U45*%
X202600000Y-195150000D03*
X202600000Y-197050000D03*
X205000000Y-196100000D03*
%TD*%
D12*
%TO.C,D55*%
X251350000Y-223950000D03*
X251350000Y-227250000D03*
X256250000Y-227250000D03*
X256250000Y-223950000D03*
%TD*%
D11*
%TO.C,C7*%
X260250000Y-75600000D03*
X262150000Y-75600000D03*
%TD*%
D10*
%TO.C,U4*%
X177600000Y-70150000D03*
X177600000Y-72050000D03*
X180000000Y-71100000D03*
%TD*%
D12*
%TO.C,D53*%
X201350000Y-223950000D03*
X201350000Y-227250000D03*
X206250000Y-227250000D03*
X206250000Y-223950000D03*
%TD*%
%TO.C,D60*%
X176350000Y-248950000D03*
X176350000Y-252250000D03*
X181250000Y-252250000D03*
X181250000Y-248950000D03*
%TD*%
%TO.C,D47*%
X251350000Y-198950000D03*
X251350000Y-202250000D03*
X256250000Y-202250000D03*
X256250000Y-198950000D03*
%TD*%
D10*
%TO.C,U33*%
X102600000Y-170150000D03*
X102600000Y-172050000D03*
X105000000Y-171100000D03*
%TD*%
D13*
%TO.C,R55*%
X252887500Y-230100000D03*
X254712500Y-230100000D03*
%TD*%
D11*
%TO.C,C62*%
X235250000Y-250600000D03*
X237150000Y-250600000D03*
%TD*%
D12*
%TO.C,D41*%
X101350000Y-198950000D03*
X101350000Y-202250000D03*
X106250000Y-202250000D03*
X106250000Y-198950000D03*
%TD*%
D10*
%TO.C,U46*%
X227600000Y-195150000D03*
X227600000Y-197050000D03*
X230000000Y-196100000D03*
%TD*%
D11*
%TO.C,C55*%
X260250000Y-225600000D03*
X262150000Y-225600000D03*
%TD*%
D13*
%TO.C,R44*%
X177887500Y-205100000D03*
X179712500Y-205100000D03*
%TD*%
%TO.C,R30*%
X227887500Y-155100000D03*
X229712500Y-155100000D03*
%TD*%
D12*
%TO.C,D3*%
X151350000Y-73950000D03*
X151350000Y-77250000D03*
X156250000Y-77250000D03*
X156250000Y-73950000D03*
%TD*%
%TO.C,D32*%
X276350000Y-148950000D03*
X276350000Y-152250000D03*
X281250000Y-152250000D03*
X281250000Y-148950000D03*
%TD*%
D13*
%TO.C,R53*%
X202887500Y-230100000D03*
X204712500Y-230100000D03*
%TD*%
D12*
%TO.C,D7*%
X251350000Y-73950000D03*
X251350000Y-77250000D03*
X256250000Y-77250000D03*
X256250000Y-73950000D03*
%TD*%
D17*
%TO.C,A1*%
X123990000Y-105660000D03*
D18*
X123990000Y-103120000D03*
X123990000Y-100580000D03*
X123990000Y-98040000D03*
X123990000Y-95500000D03*
X123990000Y-92960000D03*
X123990000Y-90420000D03*
X123990000Y-87880000D03*
X123990000Y-85340000D03*
X123990000Y-82800000D03*
X123990000Y-80260000D03*
X123990000Y-77720000D03*
X123990000Y-75180000D03*
X123990000Y-72640000D03*
X123990000Y-70100000D03*
X139230000Y-70100000D03*
X139230000Y-72640000D03*
X139230000Y-75180000D03*
X139230000Y-77720000D03*
X139230000Y-80260000D03*
X139230000Y-82800000D03*
X139230000Y-85340000D03*
X139230000Y-87880000D03*
X139230000Y-90420000D03*
X139230000Y-92960000D03*
X139230000Y-95500000D03*
X139230000Y-98040000D03*
X139230000Y-100580000D03*
X139230000Y-103120000D03*
X139230000Y-105660000D03*
%TD*%
M02*
