%TF.GenerationSoftware,KiCad,Pcbnew,10.0.4*%
%TF.CreationDate,2026-08-23T16:17:51+02:00*%
%TF.ProjectId,Chess board,43686573-7320-4626-9f61-72642e6b6963,rev?*%
%TF.SameCoordinates,Original*%
%TF.FileFunction,Legend,Bot*%
%TF.FilePolarity,Positive*%
%FSLAX46Y46*%
G04 Gerber Fmt 4.6, Leading zero omitted, Abs format (unit mm)*
G04 Created by KiCad (PCBNEW 10.0.4) date 2026-08-23 16:17:51*
%MOMM*%
%LPD*%
G01*
G04 APERTURE LIST*
%ADD10C,0.150000*%
%ADD11C,0.120000*%
G04 APERTURE END LIST*
D10*
X132181428Y-110873723D02*
X131800475Y-110873723D01*
X132257618Y-111102295D02*
X131990951Y-110302295D01*
X131990951Y-110302295D02*
X131724285Y-111102295D01*
X131038571Y-111102295D02*
X131495714Y-111102295D01*
X131267142Y-111102295D02*
X131267142Y-110302295D01*
X131267142Y-110302295D02*
X131343333Y-110416580D01*
X131343333Y-110416580D02*
X131419523Y-110492771D01*
X131419523Y-110492771D02*
X131495714Y-110530866D01*
X130348095Y-70645180D02*
X130348095Y-69835657D01*
X130348095Y-69835657D02*
X130395714Y-69740419D01*
X130395714Y-69740419D02*
X130443333Y-69692800D01*
X130443333Y-69692800D02*
X130538571Y-69645180D01*
X130538571Y-69645180D02*
X130729047Y-69645180D01*
X130729047Y-69645180D02*
X130824285Y-69692800D01*
X130824285Y-69692800D02*
X130871904Y-69740419D01*
X130871904Y-69740419D02*
X130919523Y-69835657D01*
X130919523Y-69835657D02*
X130919523Y-70645180D01*
X131348095Y-69692800D02*
X131490952Y-69645180D01*
X131490952Y-69645180D02*
X131729047Y-69645180D01*
X131729047Y-69645180D02*
X131824285Y-69692800D01*
X131824285Y-69692800D02*
X131871904Y-69740419D01*
X131871904Y-69740419D02*
X131919523Y-69835657D01*
X131919523Y-69835657D02*
X131919523Y-69930895D01*
X131919523Y-69930895D02*
X131871904Y-70026133D01*
X131871904Y-70026133D02*
X131824285Y-70073752D01*
X131824285Y-70073752D02*
X131729047Y-70121371D01*
X131729047Y-70121371D02*
X131538571Y-70168990D01*
X131538571Y-70168990D02*
X131443333Y-70216609D01*
X131443333Y-70216609D02*
X131395714Y-70264228D01*
X131395714Y-70264228D02*
X131348095Y-70359466D01*
X131348095Y-70359466D02*
X131348095Y-70454704D01*
X131348095Y-70454704D02*
X131395714Y-70549942D01*
X131395714Y-70549942D02*
X131443333Y-70597561D01*
X131443333Y-70597561D02*
X131538571Y-70645180D01*
X131538571Y-70645180D02*
X131776666Y-70645180D01*
X131776666Y-70645180D02*
X131919523Y-70597561D01*
X132681428Y-70168990D02*
X132824285Y-70121371D01*
X132824285Y-70121371D02*
X132871904Y-70073752D01*
X132871904Y-70073752D02*
X132919523Y-69978514D01*
X132919523Y-69978514D02*
X132919523Y-69835657D01*
X132919523Y-69835657D02*
X132871904Y-69740419D01*
X132871904Y-69740419D02*
X132824285Y-69692800D01*
X132824285Y-69692800D02*
X132729047Y-69645180D01*
X132729047Y-69645180D02*
X132348095Y-69645180D01*
X132348095Y-69645180D02*
X132348095Y-70645180D01*
X132348095Y-70645180D02*
X132681428Y-70645180D01*
X132681428Y-70645180D02*
X132776666Y-70597561D01*
X132776666Y-70597561D02*
X132824285Y-70549942D01*
X132824285Y-70549942D02*
X132871904Y-70454704D01*
X132871904Y-70454704D02*
X132871904Y-70359466D01*
X132871904Y-70359466D02*
X132824285Y-70264228D01*
X132824285Y-70264228D02*
X132776666Y-70216609D01*
X132776666Y-70216609D02*
X132681428Y-70168990D01*
X132681428Y-70168990D02*
X132348095Y-70168990D01*
%TO.C,A1*%
D11*
X122590000Y-66160000D02*
X127670000Y-66160000D01*
X122590000Y-104390000D02*
X122590000Y-66160000D01*
X122590000Y-109600000D02*
X122590000Y-106930000D01*
X125260000Y-68830000D02*
X122590000Y-68830000D01*
X125260000Y-104390000D02*
X122590000Y-104390000D01*
X125260000Y-104390000D02*
X125260000Y-68830000D01*
X125260000Y-104390000D02*
X125260000Y-106930000D01*
X125260000Y-106930000D02*
X122590000Y-106930000D01*
X127670000Y-63620000D02*
X127670000Y-74040000D01*
X127670000Y-74040000D02*
X135550000Y-74040000D01*
X135550000Y-63620000D02*
X127670000Y-63620000D01*
X135550000Y-74040000D02*
X135550000Y-63620000D01*
X137960000Y-68830000D02*
X140630000Y-68830000D01*
X137960000Y-106930000D02*
X137960000Y-68830000D01*
X137960000Y-106930000D02*
X140630000Y-106930000D01*
X140630000Y-66160000D02*
X135550000Y-66160000D01*
X140630000Y-66160000D02*
X140630000Y-109600000D01*
X140630000Y-109600000D02*
X122590000Y-109600000D01*
%TD*%
M02*
